<?xml version="1.0" standalone="no"?><!DOCTYPE svg PUBLIC "-//W3C//DTD SVG 1.1//EN" "http://www.w3.org/Graphics/SVG/1.1/DTD/svg11.dtd"><svg class="icon" width="23px" height="23.00px" viewBox="0 0 1024 1024" version="1.1" xmlns="http://www.w3.org/2000/svg"><path fill="#000000" d="M170.666667 938.666667a85.333333 85.333333 0 0 1-85.333334-85.333334v-341.333333a85.333333 85.333333 0 0 1 85.333334-85.333333h85.333333l128-341.333334h42.666667a170.666667 170.666667 0 0 1 170.666666 170.666667v170.666667h232.021334a85.333333 85.333333 0 0 1 82.773333 106.026666l-69.12 276.693334A170.666667 170.666667 0 0 1 677.376 938.666667H170.666667z m85.333333-426.666667H170.666667v341.333333h85.333333v-341.333333z m187.136-341.333333L341.333333 442.154667V853.333333h336.085334a85.333333 85.333333 0 0 0 82.773333-64.64L829.354667 512H512V239.530667c0-35.925333-27.52-65.408-62.592-68.565334L443.136 170.666667z"  /></svg>
