<svg xmlns="http://www.w3.org/2000/svg" xmlns:xlink="http://www.w3.org/1999/xlink" fill="none" version="1.1" width="20.333343505859375" height="18.5" viewBox="0 0 20.333343505859375 18.5"><g><path d="M13.3888,0.0000946227Q13.6012,0.00301723,13.7941,0.0920406L13.7945,0.0922473L19.7524,2.84204Q19.8825,2.90208,19.9905,2.99622Q20.0985,3.09037,20.1757,3.21105Q20.2529,3.33173,20.2931,3.46923Q20.3333,3.60673,20.3333,3.75L20.3333,17.5Q20.3333,17.7196,20.2413,17.9191Q20.2,18.0085,20.1421,18.0881Q20.0842,18.1678,20.0118,18.2346Q19.9395,18.3014,19.8555,18.3529Q19.7715,18.4043,19.679,18.4383Q19.5866,18.4724,19.4893,18.4878Q19.392,18.5031,19.2936,18.4992Q19.1952,18.4953,19.0995,18.4723Q19.0037,18.4492,18.9143,18.408L13.3599,15.8444L7.35225,18.4191Q7.16358,18.5,6.95832,18.5L6.94458,18.4999Q6.73216,18.497,6.53927,18.408L6.53543,18.4062L0.580942,15.658Q0.450861,15.5979,0.34287,15.5038Q0.234879,15.4096,0.157665,15.289Q0.0804503,15.1683,0.0402252,15.0308Q0,14.8933,0,14.75L0,1Q0,0.780363,0.0920406,0.580942Q0.133314,0.491516,0.191241,0.41186Q0.249168,0.332204,0.321521,0.26538Q0.393875,0.198555,0.477876,0.147131Q0.561876,0.0957059,0.654295,0.0616569Q0.746713,0.0276079,0.843999,0.0122431Q0.941284,-0.00312166,1.0397,0.000788281Q1.13811,0.00469822,1.23387,0.0277326Q1.32963,0.050767,1.41906,0.0920406L6.97339,2.65558L12.9807,0.081034L12.9811,0.080855Q13.1697,0,13.375,0L13.3888,0.0000946227ZM12.375,2.51654L7.95831,4.40941L7.95831,15.9835L12.375,14.0906L12.375,2.51654ZM14.375,14.1102L18.3333,15.9371L18.3333,4.38983L14.375,2.56291L14.375,14.1102ZM5.95831,15.9371L5.95831,4.38982L2,2.56291L2,14.1102L5.95831,15.9371Z" fill-rule="evenodd" fill="#333333" fill-opacity="0.699999988079071"/></g></svg>