<svg xmlns="http://www.w3.org/2000/svg" xmlns:xlink="http://www.w3.org/1999/xlink" fill="none" version="1.1" width="22" height="22" viewBox="0 0 22 22"><defs><clipPath id="master_svg0_49_05341"><rect x="0" y="0" width="22" height="22" rx="0"/></clipPath></defs><g clip-path="url(#master_svg0_49_05341)"><g><rect x="0" y="0" width="22" height="22" rx="0" fill="#FFFFFF" fill-opacity="0"/></g><g><path d="M11.326753505859376,3.4433747695312498Q11.167993505859375,3.38848876953125,11.000013505859375,3.38848876953125Q10.832033505859375,3.38848876953125,10.673273505859376,3.4433747695312498L1.506603505859375,6.61242876953125Q1.318608505859375,6.677418769531251,1.169795505859375,6.809408769531251Q1.020982505859375,6.94139876953125,0.934006505859375,7.12028876953125Q0.847030505859375,7.299178769531251,0.835133505859375,7.49772876953125Q0.8232335058593749,7.69628876953125,0.888229505859375,7.8842787695312495Q0.925038505859375,7.99075876953125,0.984613505859375,8.08636876953125Q1.044188505859375,8.18197876953125,1.1235425058593749,8.26194876953125Q1.202897505859375,8.34190876953125,1.298053505859375,8.40220876953125Q1.393209505859375,8.46251876953125,1.499397505859375,8.500138769531251L10.666063505859375,11.747748769531249Q10.828103505859374,11.80515876953125,11.000013505859375,11.80515876953125Q11.171913505859376,11.80515876953125,11.333953505859375,11.747748769531249L20.500643505859376,8.500138769531251Q20.593443505859376,8.467248769531249,20.678143505859374,8.41687876953125Q20.762743505859376,8.36649876953125,20.835943505859376,8.30058876953125Q20.909143505859376,8.23467876953125,20.968043505859374,8.15574876953125Q21.026943505859375,8.07681876953125,21.069343505859376,7.98791876953125Q21.111743505859376,7.89901876953125,21.135943505859377,7.80354876953125Q21.160143505859374,7.708088769531249,21.165343505859376,7.60972876953125Q21.170443505859375,7.51137876953125,21.156343505859375,7.41389876953125Q21.142143505859377,7.31643876953125,21.109243505859375,7.22359876953125Q21.071643505859374,7.1174087695312505,21.011343505859376,7.0222487695312505Q20.951043505859374,6.92709876953125,20.871043505859376,6.84773876953125Q20.791143505859374,6.76838876953125,20.695543505859376,6.708808769531251Q20.599843505859376,6.64923876953125,20.493443505859375,6.61242876953125L11.326753505859376,3.4433747695312498ZM11.000013505859375,5.44655876953125L4.860453505859375,7.56909876953125L11.000013505859375,9.74424876953125L17.139543505859375,7.56909876953125L11.000013505859375,5.44655876953125Z" fill-rule="evenodd" fill="#333333" fill-opacity="0.699999988079071"/></g><g><path d="M11.330363505859374,15.415678769531251L20.497043505859374,12.20734676953125Q20.684743505859377,12.14163576953125,20.833043505859376,12.00908076953125Q20.981343505859375,11.87652476953125,21.067643505859376,11.69730376953125Q21.166643505859376,11.49169176953125,21.166643505859376,11.263488769531248Q21.166643505859376,11.25422173953125,21.166543505859376,11.24495626953125Q21.163543505859376,11.08455776953125,21.110543505859376,10.93313876953125Q21.085043505859375,10.86019176953125,21.048543505859374,10.79203376953125Q21.012143505859374,10.72387576953125,20.965643505859376,10.66212676953125Q20.919143505859374,10.60037676953125,20.863743505859375,10.54650176953125Q20.808343505859376,10.49262676953125,20.745343505859374,10.44790576953125Q20.682243505859375,10.40318576953125,20.613143505859377,10.36868076953125Q20.543943505859374,10.33417676953125,20.470343505859375,10.31070776953125Q20.396743505859376,10.28723976953125,20.320343505859373,10.27536376953125Q20.243943505859374,10.26348876953125,20.166643505859376,10.26348876953125L20.157543505859376,10.26352976953125Q19.992343505859374,10.26503376953125,19.836343505859375,10.31963076953125L11.000013505859375,13.41233876953125L2.163911505859375,10.31970676953125L2.163693505859375,10.31963076953125Q2.003289505859375,10.26348876953125,1.833344366723375,10.26348876953125L1.827037205859375,10.26350876953125Q1.602153505859375,10.26492676953125,1.399527505859375,10.36248676953125Q1.2203075058593749,10.44877876953125,1.087751505859375,10.59708576953125Q0.955195505859375,10.74539276953125,0.889485505859375,10.93313876953125Q0.833343505859375,11.09354276953125,0.833343505859375,11.26348876953125L0.833363505859375,11.26979506953125Q0.834781505859375,11.49467876953125,0.932341505859375,11.69730476953125Q1.018633505859375,11.87652476953125,1.1669405058593751,12.00908076953125Q1.315248505859375,12.14163676953125,1.502993505859375,12.20734676953125L1.503210505859375,12.20742276953125L10.669663505859376,15.415678769531251Q10.830063505859375,15.47181876953125,11.000013505859375,15.47181876953125Q11.169953505859375,15.47181876953125,11.330363505859374,15.415678769531251Z" fill-rule="evenodd" fill="#333333" fill-opacity="0.699999988079071"/></g><g><path d="M11.330363505859374,19.0822437109375L20.497043505859374,15.8739117109375Q20.684743505859377,15.8082007109375,20.833043505859376,15.6756457109375Q20.981343505859375,15.5430897109375,21.067643505859376,15.3638687109375Q21.166643505859376,15.1582567109375,21.166643505859376,14.930053710937498Q21.166643505859376,14.9207866809375,21.166543505859376,14.9115212109375Q21.163543505859376,14.7511227109375,21.110543505859376,14.5997037109375Q21.085043505859375,14.5267567109375,21.048543505859374,14.4585987109375Q21.012143505859374,14.3904407109375,20.965643505859376,14.3286917109375Q20.919143505859374,14.2669417109375,20.863743505859375,14.2130667109375Q20.808343505859376,14.1591917109375,20.745343505859374,14.1144707109375Q20.682243505859375,14.0697507109375,20.613143505859377,14.0352457109375Q20.543943505859374,14.0007417109375,20.470343505859375,13.9772727109375Q20.396743505859376,13.9538047109375,20.320343505859373,13.9419287109375Q20.243943505859374,13.9300537109375,20.166643505859376,13.9300537109375L20.157543505859376,13.9300947109375Q19.992343505859374,13.9315987109375,19.836343505859375,13.9861957109375L11.000013505859375,17.0789037109375L2.163911505859375,13.9862717109375L2.163693505859375,13.9861957109375Q2.003289505859375,13.9300537109375,1.833344366723375,13.9300537109375L1.827037205859375,13.9300737109375Q1.602153505859375,13.9314917109375,1.399527505859375,14.0290517109375Q1.2203075058593749,14.1153437109375,1.087751505859375,14.2636507109375Q0.955195505859375,14.4119577109375,0.889485505859375,14.5997037109375Q0.833343505859375,14.7601077109375,0.833343505859375,14.9300537109375L0.833363505859375,14.9363600109375Q0.834781505859375,15.1612437109375,0.932341505859375,15.3638697109375Q1.018633505859375,15.5430897109375,1.1669405058593751,15.6756457109375Q1.315248505859375,15.8082017109375,1.502993505859375,15.8739117109375L1.503210505859375,15.8739877109375L10.669663505859376,19.0822437109375Q10.830063505859375,19.1383837109375,11.000013505859375,19.1383837109375Q11.169953505859375,19.1383837109375,11.330363505859374,19.0822437109375Z" fill-rule="evenodd" fill="#333333" fill-opacity="0.699999988079071"/></g></g></svg>