<?xml version="1.0" standalone="no"?><!DOCTYPE svg PUBLIC "-//W3C//DTD SVG 1.1//EN" "http://www.w3.org/Graphics/SVG/1.1/DTD/svg11.dtd"><svg t="1705210293308" class="icon" viewBox="0 0 1024 1024" version="1.1" xmlns="http://www.w3.org/2000/svg" p-id="1823" width="28" height="28" xmlns:xlink="http://www.w3.org/1999/xlink"><path d="M904.021333 511.530667a391.978667 391.978667 0 1 0-440.661333 388.821333 195.84 195.84 0 0 0 40.021333 3.626667 126.122667 126.122667 0 0 0 12.8-0.64 391.808 391.808 0 0 0 387.84-391.808z m-56.064 5.546666a383.530667 383.530667 0 0 0-7.637333-57.258666c0.341333-6.656 0.426667-12.8 0.256-18.773334a336.810667 336.810667 0 0 1 7.424 70.485334l-0.042667 5.674666z m-671.914666-5.546666a337.066667 337.066667 0 0 1 7.168-69.12 35.584 35.584 0 0 0 57.045333-8.021334c14.933333 8.874667 34.986667 10.496 34.986667 28.288 0 58.666667 2.090667 121.557333 55.466666 122.538667a75.989333 75.989333 0 0 1 43.050667 45.525333c4.650667 12.032 22.997333 0 43.178667 0 10.069333 0 0 17.066667 0 53.589334s78.677333 92.714667 78.677333 92.714666a422.4 422.4 0 0 0 2.645333 59.306667 131.754667 131.754667 0 0 0-44.501333 6.016 335.914667 335.914667 0 0 1-277.717333-330.837333z m418.688 325.461333c-1.749333-8.533333-9.344-13.184-23.253334-9.557333 11.093333-47.232 16.469333-73.685333 39.637334-93.866667a31.317333 31.317333 0 0 0-21.333334-57.557333c-20.096 3.029333-7.381333-24.874667-25.344-26.410667s-41.344-37.162667-67.157333-49.450667c-13.696-6.485333-27.136-23.893333-48.256-24.704-18.688-0.725333-46.037333 15.829333-46.037333 3.072a792.618667 792.618667 0 0 0-5.034667-82.090666c-0.682667-9.386667-6.144-3.157333 19.157333-2.56 13.781333 0.384 7.04-27.648 20.650667-28.757334s45.269333 12.544 53.376 7.125334 55.466667 125.781333 55.466667 21.632c0-12.373333-6.4-33.834667 0-45.568a548.650667 548.650667 0 0 0 46.933333-89.6 69.461333 69.461333 0 0 0-45.653333 0.981333c-6.656 2.218667 2.133333 12.8-7.466667 14.890667-35.882667 8.277333-67.584-9.685333-56.490667-26.538667s52.565333-7.552 56.149334-42.24c2.090667-19.882667 3.797333-42.88 4.949333-59.989333 48.298667 7.552 42.965333-62.677333-28.842667-70.186667a336.085333 336.085333 0 0 1 313.514667 225.706667 13.696 13.696 0 0 0-8.021333-3.669334c-21.717333-54.229333-74.410667-14.976-56.533334 32.853334-95.786667 73.6-71.253333 124.970667-39.808 154.368a284.885333 284.885333 0 0 1 42.666667 55.466666c-11.178667 32.64 41.216 19.541333 67.072-35.797333a336.469333 336.469333 0 0 1-240.341333 232.618667z" fill="black" p-id="1824"></path></svg>
