<svg xmlns="http://www.w3.org/2000/svg" xmlns:xlink="http://www.w3.org/1999/xlink" fill="none" version="1.1" width="22" height="22" viewBox="0 0 22 22"><defs><clipPath id="master_svg0_23_03844"><rect x="0" y="0" width="22" height="22" rx="0"/></clipPath></defs><g clip-path="url(#master_svg0_23_03844)"><g><path d="M20.301679919433592,18.799022290039062L16.704979919433594,15.204522290039062C17.749279919433594,13.808522290039063,18.371479919433593,12.082722290039062,18.371479919433593,10.203052290039063C18.371479919433593,5.575292290039062,14.616479919433594,1.8247222900390625,9.986509919433594,1.8247222900390625C5.358749919433594,1.8269211800390626,1.6059804111715938,5.577492290039062,1.6059804111715938,10.205252290039063C1.6059804111715938,14.833022290039063,5.358749919433594,18.583622290039063,9.988709919433594,18.583622290039063C12.090479919433594,18.583622290039063,14.005279919433594,17.805322290039065,15.476079919433595,16.530222290039063L19.022179919433594,20.076322290039062C19.198079919433592,20.25222229003906,19.428879919433594,20.342322290039064,19.661979919433595,20.342322290039064C19.894979919433595,20.342322290039064,20.123579919433595,20.25222229003906,20.301679919433592,20.076322290039062C20.653479919433593,19.722422290039063,20.653479919433593,19.150822290039063,20.301679919433592,18.799022290039062ZM9.988709919433594,16.778622290039063C6.361249919433594,16.778622290039063,3.4087199194335938,13.830522290039063,3.4087199194335938,10.203052290039063C3.4087199194335938,6.575592290039062,6.361249919433594,3.6296622900390627,9.988709919433594,3.6296622900390627C13.616179919433593,3.6296622900390627,16.568679919433592,6.579992290039063,16.568679919433592,10.205252290039063C16.568679919433592,13.830522290039063,13.616179919433593,16.778622290039063,9.988709919433594,16.778622290039063Z" fill="#333333" fill-opacity="0.700000000001"/></g></g></svg>
