<?xml version="1.0" standalone="no"?><!DOCTYPE svg PUBLIC "-//W3C//DTD SVG 1.1//EN" "http://www.w3.org/Graphics/SVG/1.1/DTD/svg11.dtd"><svg class="icon" width="25px" height="25.00px" viewBox="0 0 1024 1024" version="1.1" xmlns="http://www.w3.org/2000/svg"><path fill="#000000" d="M512 85.333333A346.24 346.24 0 0 0 169.173333 434.773333c0 158.506667 231.68 407.893333 314.026667 491.733334a40.106667 40.106667 0 0 0 57.6 0c82.346667-83.84 314.026667-333.226667 314.026667-490.666667A346.24 346.24 0 0 0 512 85.333333z m0 778.88c-170.666667-176.213333-278.826667-343.253333-278.826667-429.44A282.453333 282.453333 0 0 1 512 149.333333a282.453333 282.453333 0 0 1 278.826667 285.44c0 85.333333-108.8 253.226667-278.826667 429.44z"  /><path fill="#000000" d="M509.013333 324.906667a72.533333 72.533333 0 1 1-72.533333 72.533333 72.533333 72.533333 0 0 1 72.533333-72.533333m0-64a136.533333 136.533333 0 1 0 136.533334 136.533333 136.32 136.32 0 0 0-136.533334-136.533333z"  /></svg>
